<?xml version="1.0" encoding="UTF-8" standalone="no"?>
<svg
   xmlns:dc="http://purl.org/dc/elements/1.1/"
   xmlns:cc="http://creativecommons.org/ns#"
   xmlns:rdf="http://www.w3.org/1999/02/22-rdf-syntax-ns#"
   xmlns:svg="http://www.w3.org/2000/svg"
   xmlns="http://www.w3.org/2000/svg"
   xmlns:sodipodi="http://sodipodi.sourceforge.net/DTD/sodipodi-0.dtd"
   xmlns:inkscape="http://www.inkscape.org/namespaces/inkscape"
   sodipodi:docname="LattePlanarCoilPath.svg"
   inkscape:version="1.0 (4035a4fb49, 2020-05-01)"
   id="svg8"
   version="1.1"
   viewBox="0 0 220 220"
   height="220mm"
   width="220mm">
  <defs
     id="defs2">
    <inkscape:path-effect
       effect="spiro"
       id="path-effect1575"
       is_visible="true"
       lpeversion="1" />
    <inkscape:path-effect
       lpeversion="1"
       is_visible="true"
       id="path-effect1573"
       effect="spiro" />
    <inkscape:path-effect
       effect="spiro"
       id="path-effect1571"
       is_visible="true"
       lpeversion="1" />
    <inkscape:path-effect
       lpeversion="1"
       is_visible="true"
       id="path-effect1569"
       effect="spiro" />
    <inkscape:path-effect
       effect="spiro"
       id="path-effect1567"
       is_visible="true"
       lpeversion="1" />
    <inkscape:path-effect
       lpeversion="1"
       is_visible="true"
       id="path-effect1565"
       effect="spiro" />
    <inkscape:path-effect
       effect="spiro"
       id="path-effect1518"
       is_visible="true"
       lpeversion="1" />
    <inkscape:path-effect
       effect="spiro"
       id="path-effect1132"
       is_visible="true"
       lpeversion="1" />
    <inkscape:path-effect
       lpeversion="1"
       is_visible="true"
       id="path-effect1130"
       effect="spiro" />
    <inkscape:path-effect
       effect="spiro"
       id="path-effect1128"
       is_visible="true"
       lpeversion="1" />
    <inkscape:path-effect
       lpeversion="1"
       is_visible="true"
       id="path-effect1126"
       effect="spiro" />
    <inkscape:path-effect
       effect="spiro"
       id="path-effect1108"
       is_visible="true"
       lpeversion="1" />
    <inkscape:path-effect
       lpeversion="1"
       is_visible="true"
       id="path-effect1106"
       effect="spiro" />
    <inkscape:path-effect
       effect="spiro"
       id="path-effect1104"
       is_visible="true"
       lpeversion="1" />
    <inkscape:path-effect
       lpeversion="1"
       is_visible="true"
       id="path-effect1102"
       effect="spiro" />
    <inkscape:path-effect
       lpeversion="1"
       is_visible="true"
       id="path-effect976"
       effect="spiro" />
    <inkscape:path-effect
       effect="spiro"
       id="path-effect974"
       is_visible="true"
       lpeversion="1" />
    <inkscape:path-effect
       lpeversion="1"
       is_visible="true"
       id="path-effect972"
       effect="spiro" />
    <inkscape:path-effect
       effect="spiro"
       id="path-effect970"
       is_visible="true"
       lpeversion="1" />
    <inkscape:path-effect
       effect="spiro"
       id="path-effect1879"
       is_visible="true"
       lpeversion="1" />
    <inkscape:path-effect
       lpeversion="1"
       is_visible="true"
       id="path-effect1860"
       effect="spiro" />
    <inkscape:path-effect
       effect="spiro"
       id="path-effect1841"
       is_visible="true"
       lpeversion="1" />
    <inkscape:path-effect
       lpeversion="1"
       is_visible="true"
       id="path-effect1822"
       effect="spiro" />
    <inkscape:path-effect
       effect="spiro"
       id="path-effect1803"
       is_visible="true"
       lpeversion="1" />
    <inkscape:path-effect
       lpeversion="1"
       is_visible="true"
       id="path-effect1784"
       effect="spiro" />
    <inkscape:path-effect
       lpeversion="1"
       is_visible="true"
       id="path-effect1780"
       effect="spiro" />
    <inkscape:path-effect
       effect="spiro"
       id="path-effect1668"
       is_visible="true"
       lpeversion="1" />
    <inkscape:path-effect
       effect="spiro"
       id="path-effect1666"
       is_visible="true"
       lpeversion="1" />
    <inkscape:path-effect
       effect="spiro"
       id="path-effect1664"
       is_visible="true"
       lpeversion="1" />
    <inkscape:path-effect
       effect="spiro"
       id="path-effect1662"
       is_visible="true"
       lpeversion="1" />
    <inkscape:path-effect
       effect="spiro"
       id="path-effect1660"
       is_visible="true"
       lpeversion="1" />
    <inkscape:path-effect
       effect="spiro"
       id="path-effect1658"
       is_visible="true"
       lpeversion="1" />
    <inkscape:path-effect
       lpeversion="1"
       is_visible="true"
       id="path-effect1596"
       effect="spiro" />
    <inkscape:path-effect
       lpeversion="1"
       is_visible="true"
       id="path-effect1592"
       effect="spiro" />
    <inkscape:path-effect
       lpeversion="1"
       is_visible="true"
       id="path-effect1588"
       effect="spiro" />
    <inkscape:path-effect
       lpeversion="1"
       is_visible="true"
       id="path-effect1584"
       effect="spiro" />
    <inkscape:path-effect
       lpeversion="1"
       is_visible="true"
       id="path-effect1580"
       effect="spiro" />
    <inkscape:path-effect
       lpeversion="1"
       is_visible="true"
       id="path-effect1576"
       effect="spiro" />
    <inkscape:path-effect
       lpeversion="1"
       is_visible="true"
       id="path-effect1396"
       effect="spiro" />
    <inkscape:path-effect
       lpeversion="1"
       is_visible="true"
       id="path-effect1392"
       effect="spiro" />
    <inkscape:path-effect
       lpeversion="1"
       is_visible="true"
       id="path-effect1388"
       effect="spiro" />
    <inkscape:path-effect
       effect="spiro"
       id="path-effect1153"
       is_visible="true"
       lpeversion="1" />
    <inkscape:path-effect
       lpeversion="1"
       is_visible="true"
       id="path-effect1151"
       effect="spiro" />
    <inkscape:path-effect
       effect="spiro"
       id="path-effect1127"
       is_visible="true"
       lpeversion="1" />
    <inkscape:path-effect
       lpeversion="1"
       is_visible="true"
       id="path-effect1125"
       effect="spiro" />
    <inkscape:path-effect
       lpeversion="1"
       is_visible="true"
       id="path-effect1101"
       effect="spiro" />
    <inkscape:path-effect
       effect="spiro"
       id="path-effect1082"
       is_visible="true"
       lpeversion="1" />
    <inkscape:path-effect
       lpeversion="1"
       is_visible="true"
       id="path-effect1080"
       effect="spiro" />
    <inkscape:path-effect
       lpeversion="1"
       is_visible="true"
       id="path-effect1078"
       effect="spiro" />
    <inkscape:path-effect
       effect="spiro"
       id="path-effect1076"
       is_visible="true"
       lpeversion="1" />
    <inkscape:path-effect
       effect="spiro"
       id="path-effect1042"
       is_visible="true"
       lpeversion="1" />
    <inkscape:path-effect
       lpeversion="1"
       is_visible="true"
       id="path-effect1040"
       effect="spiro" />
    <inkscape:path-effect
       effect="spiro"
       id="path-effect1016"
       is_visible="true"
       lpeversion="1" />
    <inkscape:path-effect
       lpeversion="1"
       is_visible="true"
       id="path-effect997"
       effect="spiro" />
    <inkscape:path-effect
       lpeversion="1"
       is_visible="true"
       id="path-effect839"
       effect="spiro" />
  </defs>
  <sodipodi:namedview
     inkscape:window-maximized="1"
     inkscape:window-y="-9"
     inkscape:window-x="-9"
     inkscape:window-height="2081"
     inkscape:window-width="3840"
     showgrid="false"
     inkscape:document-rotation="0"
     inkscape:current-layer="layer2"
     inkscape:document-units="mm"
     inkscape:cy="428.77416"
     inkscape:cx="73.65639"
     inkscape:zoom="1.4142136"
     inkscape:pageshadow="2"
     inkscape:pageopacity="0.0"
     borderopacity="1.0"
     bordercolor="#666666"
     pagecolor="#ffffff"
     id="base" />
  <metadata
     id="metadata5">
    <rdf:RDF>
      <cc:Work
         rdf:about="">
        <dc:format>image/svg+xml</dc:format>
        <dc:type
           rdf:resource="http://purl.org/dc/dcmitype/StillImage" />
        <dc:title></dc:title>
      </cc:Work>
    </rdf:RDF>
  </metadata>
  <g
     inkscape:label="Coil"
     id="layer2"
     inkscape:groupmode="layer">
    <path
       transform="scale(0.26458333)"
       d="m 205.98438,77.289062 c -15.63393,0 -28.34571,12.711794 -28.34571,28.345708 v 558.99414 h 0.004 a 1.8897108,1.8897108 0 0 0 0.0684,0.50976 c 3.63654,12.97365 5.69086,24.79837 7.15234,35.17383 a 1.8898582,1.8898582 0 0 0 -0.0586,0.43555 c -0.002,0.15211 0.009,0.3013 0.008,0.45312 -0.11635,7.19424 -0.50793,16.28095 0.98242,23.92188 0.53829,2.75979 1.32659,5.34498 2.52539,7.58984 1.26693,4.90267 2.94279,9.41588 5.26953,12.93164 1.31204,1.98251 2.8942,3.6712 4.72461,4.85156 2.13809,1.55269 4.73954,2.49591 7.54297,2.53711 6.33786,0.0932 11.55095,-4.51125 12.91797,-10.48632 a 6.6696,6.6696 0 0 0 0.57813,-2.62696 6.6696,6.6696 0 0 0 -0.5,-2.62695 c -1.18521,-6.01954 -6.26261,-10.77591 -12.60547,-10.86914 -0.24163,-0.004 -0.47789,0.0177 -0.7168,0.0273 -2.76731,-0.3789 -5.15014,-1.2896 -7.19727,-2.63476 -1.09209,-1.02334 -2.11735,-2.14972 -3.06054,-3.37305 -2.34723,-3.0444 -4.16728,-6.63665 -5.31055,-10.39258 -1.54094,-12.457 -3.6218,-28.00734 -8.54492,-45.65625 V 105.63477 c 0,-13.591306 10.97509,-24.566411 24.56641,-24.566411 13.59129,0 24.5664,10.975105 24.5664,24.566411 v 535.49804 h 0.008 c 0,3.1081 2.56183,5.66797 5.66993,5.66797 3.10809,0 5.66796,-2.55987 5.66796,-5.66797 V 105.63477 h -0.006 c 0,-13.591306 10.98291,-24.566411 24.57422,-24.566411 13.5913,0 24.56641,10.975105 24.56641,24.566411 v 542.36914 c 0,2.38314 1.17211,4.45212 2.87891,5.89843 1.7068,1.44632 3.90224,2.44628 6.4082,3.33008 5.01192,1.76761 11.35412,3.03852 17.50976,5.0332 6.15565,1.99469 12.05385,4.6965 16.17383,9.02149 4.09857,4.30251 6.61493,10.19398 6.00782,19.33984 -0.13541,0.52934 -3.38714,13.15256 -9.78125,28.70899 -6.53093,15.88924 -16.33767,34.58081 -28.92969,45.71484 -6.29601,5.56702 -13.22241,9.23502 -20.8086,9.95899 -7.58618,0.72393 -15.95456,-1.44283 -25.3125,-8.02344 -18.67757,-13.13424 -40.9566,-43.99764 -66.20117,-102.75195 V 105.63477 c 0,-9.415575 7.59223,-17.007817 17.00782,-17.007817 9.41556,0 17.00781,7.592242 17.00781,17.007817 V 641.13281 H 223 c 0,7.28357 5.94467,13.22657 13.22852,13.22657 7.28384,0 13.22851,-5.943 13.22851,-13.22657 V 105.63477 c 0,-9.415575 7.59223,-17.007817 17.00781,-17.007817 9.41557,0 17.00782,7.592242 17.00782,17.007817 v 544.75585 a 1.8894727,1.8894727 0 0 0 0.0723,0.58204 c 1.72336,5.86975 6.30486,9.4197 11.61328,11.77343 5.30842,2.35374 11.48689,3.70906 17.20703,5.38086 5.72015,1.67184 10.92054,3.66952 14.30469,6.87305 3.36604,3.18638 5.22393,7.4912 4.31641,14.89844 -0.0447,0.1931 -2.75644,11.86866 -8.26563,26.15234 -5.5551,14.40272 -13.9863,31.31869 -24.95703,41.2793 -5.48536,4.98032 -11.53424,8.21316 -18.20508,8.78515 -6.67083,0.572 -14.099,-1.47342 -22.51367,-7.56054 -16.79216,-12.14731 -37.11347,-40.51416 -60.50976,-94.33203 V 105.63477 c 0,-5.24132 4.2079,-9.449223 9.44922,-9.449223 5.2413,0 9.44921,4.207903 9.44921,9.449223 v 535.49804 h 0.008 c 0,11.45756 9.32899,20.78711 20.78711,20.78711 11.45809,0 20.7871,-9.32955 20.7871,-20.78711 V 105.63477 c 0,-5.24132 4.20791,-9.449223 9.44922,-9.449223 5.24131,0 9.44727,4.207903 9.44727,9.449223 v 547.12304 a 1.8894746,1.8894746 0 0 0 0,0.008 c 0.0352,5.8599 3.42429,9.97612 7.94336,12.69727 4.51907,2.72115 10.22684,4.40387 15.83398,6.19336 5.60715,1.78953 11.10345,3.67863 15.08985,6.4375 3.94138,2.72769 6.40162,6.1009 6.67968,11.50781 -0.0507,0.2555 -2.09454,10.60854 -6.5625,23.50391 -4.52271,13.05347 -11.51231,28.35965 -20.79492,37.24219 -4.6413,4.44124 -9.76911,7.25804 -15.48633,7.6914 -5.71721,0.4334 -12.19045,-1.48448 -19.65039,-7.12304 C 244.0807,739.66585 225.70509,713.56046 204.09375,664.2207 V 105.71289 a 1.8897638,1.8897638 0 0 0 0,-0.0781 c 0,-1.06559 0.82504,-1.88282 1.89063,-1.88282 1.06557,0 1.88867,0.81723 1.88867,1.88282 v 535.49804 c 0,15.63304 12.72161,28.34571 28.35547,28.34571 15.63383,0 28.3457,-12.71267 28.3457,-28.34571 V 105.63477 c 0,-1.06559 0.82504,-1.88282 1.89062,-1.88282 1.06558,0 1.88868,0.81723 1.88868,1.88282 v 558.86914 h 0.004 a 1.8895257,1.8895257 0 0 0 -0.004,0.17578 c 0.42411,15.68525 0.63425,24.09832 0.85742,30.75976 a 1.8897638,1.8897638 0 0 0 -0.004,0.004 1.8897638,1.8897638 0 0 0 -0.0195,0.0176 1.8897638,1.8897638 0 0 0 -0.0117,0.01 1.8897638,1.8897638 0 0 0 -0.008,0.006 1.8897638,1.8897638 0 0 0 -0.006,0.004 1.8897638,1.8897638 0 0 0 -0.0762,0.0762 1.8897638,1.8897638 0 0 0 -0.006,0.006 1.8897638,1.8897638 0 0 0 -0.0469,0.0508 1.8897638,1.8897638 0 0 0 -0.0254,0.0273 1.8897638,1.8897638 0 0 0 -0.0195,0.0234 1.8897638,1.8897638 0 0 0 -0.002,0.002 1.8897638,1.8897638 0 0 0 -0.0215,0.0273 1.8897638,1.8897638 0 0 0 -0.0312,0.0371 1.8897638,1.8897638 0 0 0 -0.004,0.006 1.8897638,1.8897638 0 0 0 0,0.002 1.8897638,1.8897638 0 0 0 -0.01,0.0117 1.8897638,1.8897638 0 0 0 -0.0273,0.0391 1.8897638,1.8897638 0 0 0 -0.0274,0.041 1.8897638,1.8897638 0 0 0 -0.002,0.002 1.8897638,1.8897638 0 0 0 -0.004,0.008 1.8897638,1.8897638 0 0 0 -0.008,0.01 1.8897638,1.8897638 0 0 0 -0.0137,0.0234 1.8897638,1.8897638 0 0 0 0,0.002 1.8897638,1.8897638 0 0 0 -0.0352,0.0547 1.8897638,1.8897638 0 0 0 -0.006,0.01 1.8897638,1.8897638 0 0 0 -0.0195,0.0371 1.8897638,1.8897638 0 0 0 -0.0273,0.0488 1.8897638,1.8897638 0 0 0 -0.002,0.006 1.8897638,1.8897638 0 0 0 -0.006,0.0117 1.8897638,1.8897638 0 0 0 -0.0117,0.0254 1.8897638,1.8897638 0 0 0 -0.0312,0.0684 1.8897638,1.8897638 0 0 0 -0.008,0.0195 1.8897638,1.8897638 0 0 0 -0.004,0.008 1.8897638,1.8897638 0 0 0 -0.0293,0.0723 1.8897638,1.8897638 0 0 0 -0.002,0.008 1.8897638,1.8897638 0 0 0 -0.006,0.0176 1.8897638,1.8897638 0 0 0 -0.006,0.0215 1.8897638,1.8897638 0 0 0 -0.0215,0.0645 1.8897638,1.8897638 0 0 0 -0.006,0.0254 1.8897638,1.8897638 0 0 0 -0.004,0.0176 1.8897638,1.8897638 0 0 0 -0.008,0.0254 1.8897638,1.8897638 0 0 0 -0.0176,0.0762 1.8897638,1.8897638 0 0 0 -0.0117,0.0625 1.8897638,1.8897638 0 0 0 -0.004,0.0254 1.8897638,1.8897638 0 0 0 -0.004,0.0254 l -6.85156,39.25586 c -0.0967,0.42136 -0.17532,0.84906 -0.22461,1.28515 l -0.0176,0.10547 a 1.8897638,1.8897638 0 0 0 -0.0234,0.46875 c -0.0152,0.24164 -0.0371,0.48155 -0.0371,0.72657 10e-6,6.44972 5.35496,11.80468 11.80469,11.80468 4.82187,0 8.23657,-3.39754 10.05469,-7.60351 a 5.9177008,5.9177008 0 0 0 1.75586,-4.20117 5.9177008,5.9177008 0 0 0 -1.76368,-4.20704 c -0.56311,-1.30077 -1.27848,-2.52568 -2.14062,-3.5957 l -7.9668,-30.7832 c -0.29902,-7.55999 -0.49887,-15.8126 -1.02539,-35.28516 a 1.8895257,1.8895257 0 0 0 -0.004,-0.0723 h 0.004 V 105.63477 c 0,-3.10819 -2.55978,-5.662114 -5.66797,-5.662114 -3.10818,0 -5.66992,2.553924 -5.66992,5.662114 v 535.49804 c 0,13.59035 -10.97498,24.56641 -24.5664,24.56641 -13.59145,0 -24.57422,-10.97606 -24.57422,-24.56641 V 105.63477 c 0,-3.10819 -2.56174,-5.662114 -5.66992,-5.662114 -3.10819,0 -5.66993,2.553924 -5.66993,5.662114 v 558.99414 h 0.004 a 1.8894746,1.8894746 0 0 0 0.1582,0.75976 c 21.79625,49.83867 40.25329,76.48044 56.20703,88.53906 7.97688,6.02933 15.43293,8.39717 22.21875,7.88282 6.78583,-0.51436 12.73234,-3.87868 17.80469,-8.73243 10.1447,-9.70745 17.14834,-25.41729 21.76172,-38.73242 4.61338,-13.31516 6.77734,-24.30078 6.77734,-24.30078 l 0.0449,-0.22265 -0.0156,-0.22071 c -0.27806,-6.6709 -3.70437,-11.40776 -8.3418,-14.61718 -4.63743,-3.20939 -10.45189,-5.12919 -16.09961,-6.93165 -5.64771,-1.80245 -11.13947,-3.48665 -15.02148,-5.82421 -3.88201,-2.33753 -6.09197,-4.97593 -6.11914,-9.48438 V 105.63477 c 0,-7.283929 -5.9446,-13.22852 -13.22852,-13.22852 -7.28392,0 -13.22851,5.944591 -13.22851,13.22852 v 535.49804 c 0,9.41488 -7.59213,17.00782 -17.00781,17.00781 -9.41571,0 -17.01563,-7.59293 -17.01563,-17.00781 V 105.63477 c 0,-7.283929 -5.9446,-13.22852 -13.22851,-13.22852 -7.28393,0 -13.22852,5.944591 -13.22852,13.22852 v 558.93554 a 1.8894746,1.8894746 0 0 0 0.1543,0.81055 c 23.58544,54.33505 44.01494,83.27814 61.91992,96.23047 8.95249,6.47614 17.3677,8.92669 25.05469,8.26758 7.68698,-0.65915 14.50891,-4.38699 20.41796,-9.75196 11.81811,-10.72996 20.29165,-28.05539 25.94727,-42.71875 5.58118,-14.47029 8.33787,-26.30531 8.41016,-26.61718 a 1.8894727,1.8894727 0 0 0 0.0644,-0.30469 c 1.0496,-8.33178 -1.26538,-14.26634 -5.45508,-18.23242 -4.1897,-3.96613 -9.95706,-6.03787 -15.8418,-7.75782 -5.88473,-1.71991 -11.9495,-3.08 -16.74218,-5.20507 -4.70358,-2.08557 -8.04497,-4.72609 -9.4336,-9.13477 V 105.63477 c 0,-11.458186 -9.32894,-20.787114 -20.78711,-20.787114 -11.45819,0 -20.78906,9.328931 -20.78906,20.787114 v 535.49804 c 0,5.24088 -4.20584,9.44727 -9.44726,9.44727 -5.24143,0 -9.45704,-4.20639 -9.45704,-9.44727 V 105.63477 c 0,-11.458186 -9.32893,-20.787114 -20.7871,-20.787114 -11.45819,0 -20.78711,9.328931 -20.78711,20.787114 v 558.99414 h 0.002 a 1.8894746,1.8894746 0 0 0 0.15234,0.74414 c 25.43579,59.28612 47.83224,90.75873 67.65625,104.69922 9.91201,6.97024 19.2635,9.5212 27.83594,8.70312 8.57244,-0.81804 16.24586,-4.95455 22.95703,-10.88867 13.42235,-11.86821 23.28312,-30.96447 29.91992,-47.11133 6.63681,-16.14686 10.00196,-29.41801 10.00196,-29.41797 a 1.8894746,1.8894746 0 0 0 0.006,-0.0234 1.8894746,1.8894746 0 0 0 0.006,-0.0234 1.8894746,1.8894746 0 0 0 0.0176,-0.0899 1.8894746,1.8894746 0 0 0 0,-0.002 1.8894746,1.8894746 0 0 0 0.0156,-0.11328 1.8894746,1.8894746 0 0 0 0.008,-0.0801 1.8894746,1.8894746 0 0 0 0.006,-0.125 c 0.66735,-9.9879 -2.25118,-17.19838 -7.04102,-22.22656 -4.81013,-5.04949 -11.32294,-7.92061 -17.74609,-10.00195 -6.42314,-2.08135 -12.8239,-3.38702 -17.41406,-5.00586 -2.29508,-0.80943 -4.11876,-1.71167 -5.22656,-2.6504 -1.10781,-0.93875 -1.54297,-1.74191 -1.54297,-3.01171 V 105.63477 c 0,-15.633918 -12.7118,-28.345708 -28.34571,-28.345708 -15.63392,0 -28.35547,12.711794 -28.35546,28.345708 a 1.8897638,1.8897638 0 0 0 0.008,0.15429 v 535.34375 c 0,1.06541 -0.823,1.88867 -1.88867,1.88867 -1.06568,0 -1.89063,-0.82326 -1.89063,-1.88867 a 1.8897071,1.8897071 0 0 0 -0.008,-0.16406 V 105.63477 c 0,-15.633918 -12.7118,-28.345708 -28.3457,-28.345708 z m 64.60351,649.244138 0.0273,0.41016 c -0.0184,0.004 -0.0363,0.009 -0.0547,0.0137 z"
       style="color:#000000;font-style:normal;font-variant:normal;font-weight:normal;font-stretch:normal;font-size:medium;line-height:normal;font-family:sans-serif;font-variant-ligatures:normal;font-variant-position:normal;font-variant-caps:normal;font-variant-numeric:normal;font-variant-alternates:normal;font-variant-east-asian:normal;font-feature-settings:normal;font-variation-settings:normal;text-indent:0;text-align:start;text-decoration:none;text-decoration-line:none;text-decoration-style:solid;text-decoration-color:#000000;letter-spacing:normal;word-spacing:normal;text-transform:none;writing-mode:lr-tb;direction:ltr;text-orientation:mixed;dominant-baseline:auto;baseline-shift:baseline;text-anchor:start;white-space:normal;shape-padding:0;shape-margin:0;inline-size:0;clip-rule:nonzero;display:inline;overflow:visible;visibility:visible;opacity:1;isolation:auto;mix-blend-mode:normal;color-interpolation:sRGB;color-interpolation-filters:linearRGB;solid-color:#000000;solid-opacity:1;vector-effect:none;fill:#000000;fill-opacity:1;fill-rule:nonzero;stroke:none;stroke-width:3.77953;stroke-linecap:butt;stroke-linejoin:miter;stroke-miterlimit:4;stroke-dasharray:none;stroke-dashoffset:0;stroke-opacity:1;color-rendering:auto;image-rendering:auto;shape-rendering:auto;text-rendering:auto;enable-background:accumulate;stop-color:#000000;stop-opacity:1"
       id="path971" />
  </g>
</svg>
